<svg width="74" height="62" viewBox="0 0 74 62" version="1.1" xmlns="http://www.w3.org/2000/svg" xmlns:xlink="http://www.w3.org/1999/xlink">
<title>twitter (2)</title>
<desc>Created using Figma</desc>
<g id="Canvas" transform="translate(-926 -308)">
<g id="twitter (2)">
<g id="Vector">
<use xlink:href="#path0_stroke" transform="translate(929.351 311.354)"/>
</g>
</g>
</g>
<defs>
<path id="path0_stroke" d="M 68.0367 0.0310978L 70.4657 0.622643C 70.7122 -0.389854 70.3049 -1.4491 69.4435 -2.03551C 68.582 -2.62192 67.4472 -2.61248 66.5956 -2.01181L 68.0367 0.0310978ZM 58.326 4.76274L 56.4396 6.40333C 57.0849 7.14532 58.1052 7.44009 59.0468 7.15656L 58.326 4.76274ZM 34.0183 14.0405L 36.5183 14.0405C 36.5183 14.0293 36.5182 14.0181 36.5181 14.0069L 34.0183 14.0405ZM 34.0183 17.133L 34.0831 19.6322C 35.4381 19.5971 36.5183 18.4885 36.5183 17.133L 34.0183 17.133ZM 6.18515 3.12367L 8.23104 1.6869C 7.71344 0.949854 6.8394 0.548191 5.943 0.635428C 5.0466 0.722665 4.2664 1.28531 3.90062 2.10833L 6.18515 3.12367ZM 21.648 43.3271L 23.0521 45.3956C 23.8032 44.8858 24.2189 44.0089 24.1381 43.1048C 24.0574 42.2006 23.4929 41.4113 22.6634 41.0426L 21.648 43.3271ZM 6.8669e-15 49.5123L 0.0993616 47.0143C -1.05744 46.9683 -2.09451 47.7225 -2.40713 48.8372C -2.71975 49.9519 -2.22613 51.1355 -1.21411 51.6977L 6.8669e-15 49.5123ZM 61.8515 13.9477L 64.3515 13.9477L 64.3515 13.9394L 61.8515 13.9477ZM 61.6041 11.3808L 59.8487 9.60083C 59.2545 10.1868 58.9919 11.0306 59.1486 11.8502L 61.6041 11.3808ZM 66.5956 -2.01181C 63.8538 -0.0777718 60.818 1.40146 57.6051 2.36891L 59.0468 7.15656C 62.7744 6.03411 66.2965 4.3179 69.4777 2.07401L 66.5956 -2.01181ZM 60.2124 3.12214C 58.0137 0.594135 55.0918 -1.19765 51.8416 -2.01089L 50.628 2.83958C 52.8845 3.40419 54.9131 4.64819 56.4396 6.40333L 60.2124 3.12214ZM 51.8416 -2.01089C 48.5915 -2.82412 45.17 -2.61955 42.0399 -1.42486L 43.8228 3.24645C 45.996 2.417 48.3715 2.27497 50.628 2.83958L 51.8416 -2.01089ZM 42.0399 -1.42486C 38.9098 -0.230172 36.2222 1.897 34.3404 4.66897L 38.4773 7.47726C 39.7837 5.55274 41.6497 4.07589 43.8228 3.24645L 42.0399 -1.42486ZM 34.3404 4.66897C 32.4587 7.44093 31.4736 10.7239 31.5186 14.074L 36.5181 14.0069C 36.4869 11.6811 37.1708 9.40177 38.4773 7.47726L 34.3404 4.66897ZM 31.5183 14.0405L 31.5183 17.133L 36.5183 17.133L 36.5183 14.0405L 31.5183 14.0405ZM 33.9535 14.6339C 28.9309 14.7641 23.954 13.6502 19.4661 11.3913L 17.2181 15.8574C 22.4425 18.4871 28.2362 19.7838 34.0831 19.6322L 33.9535 14.6339ZM 19.4661 11.3913C 14.9782 9.13235 11.1186 5.79859 8.23104 1.6869L 4.13926 4.56045C 7.50068 9.34693 11.9937 13.2278 17.2181 15.8574L 19.4661 11.3913ZM 6.18515 3.12367C 3.90062 2.10833 3.90008 2.10955 3.89949 2.11088C 3.89923 2.11147 3.89859 2.11291 3.89807 2.11408C 3.89703 2.11643 3.89581 2.1192 3.8944 2.1224C 3.89159 2.12881 3.88804 2.13692 3.88378 2.14671C 3.87526 2.16629 3.8639 2.19262 3.84991 2.22552C 3.82193 2.29132 3.78339 2.38345 3.73593 2.5006C 3.64105 2.73482 3.51033 3.06945 3.35691 3.49379C 3.05037 4.34168 2.65151 5.55245 2.26682 7.03994C 1.50043 10.0033 0.77388 14.1275 0.981726 18.7001C 1.19007 23.2836 2.34094 28.3692 5.37778 33.1643C 8.42469 37.9752 13.2746 42.3414 20.6327 45.6117L 22.6634 41.0426C 16.1048 38.1277 12.0636 34.376 9.60188 30.489C 7.13007 26.5861 6.1548 22.3941 5.97657 18.473C 5.79784 14.541 6.42429 10.9338 7.10755 8.29185C 7.44768 6.97669 7.79781 5.91635 8.05904 5.19379C 8.18951 4.83291 8.29738 4.55748 8.37011 4.37795C 8.40646 4.28821 8.43399 4.22255 8.45112 4.18227C 8.45968 4.16213 8.46564 4.14834 8.46881 4.14108C 8.47039 4.13744 8.47126 4.13544 8.47142 4.13509C 8.4715 4.13492 8.47139 4.13516 8.4711 4.13581C 8.47096 4.13614 8.4706 4.13694 8.47053 4.1371C 8.47013 4.13801 8.46968 4.13902 6.18515 3.12367ZM 20.244 41.2587C 14.3172 45.2817 7.2569 47.299 0.0993616 47.0143L -0.0993616 52.0103C 8.12654 52.3375 16.2407 50.0192 23.0521 45.3956L 20.244 41.2587ZM -1.21411 51.6977C 13.3938 59.8132 29.7568 59.875 42.5378 53.0722C 55.3798 46.2369 64.3515 32.6048 64.3515 13.9477L 59.3515 13.9477C 59.3515 30.8552 51.3141 42.7368 40.1886 48.6584C 29.0022 54.6125 14.4394 54.6743 1.21411 47.3269L -1.21411 51.6977ZM 64.3515 13.9394C 64.3481 12.9232 64.2504 11.9096 64.0596 10.9115L 59.1486 11.8502C 59.2812 12.5443 59.3492 13.2493 59.3515 13.9559L 64.3515 13.9394ZM 63.3595 13.1609C 66.8463 9.72222 69.3069 5.38072 70.4657 0.622643L 65.6076 -0.560447C 64.6686 3.29561 62.6744 6.81408 59.8487 9.60083L 63.3595 13.1609Z"/>
</defs>
</svg>
