<?xml version="1.0" encoding="UTF-8" standalone="no"?>
<!-- Generator: Adobe Illustrator 16.0.0, SVG Export Plug-In . SVG Version: 6.00 Build 0)  -->

<svg
   xmlns:dc="http://purl.org/dc/elements/1.1/"
   xmlns:cc="http://creativecommons.org/ns#"
   xmlns:rdf="http://www.w3.org/1999/02/22-rdf-syntax-ns#"
   xmlns:svg="http://www.w3.org/2000/svg"
   xmlns="http://www.w3.org/2000/svg"
   xmlns:sodipodi="http://sodipodi.sourceforge.net/DTD/sodipodi-0.dtd"
   xmlns:inkscape="http://www.inkscape.org/namespaces/inkscape"
   version="1.1"
   id="Capa_1"
   x="0px"
   y="0px"
   width="430.123px"
   height="430.123px"
   viewBox="0 0 430.123 430.123"
   style="enable-background:new 0 0 430.123 430.123;"
   xml:space="preserve"
   sodipodi:docname="behance-color.svg"
   inkscape:version="0.92.4 5da689c313, 2019-01-14"><metadata
   id="metadata40"><rdf:RDF><cc:Work
       rdf:about=""><dc:format>image/svg+xml</dc:format><dc:type
         rdf:resource="http://purl.org/dc/dcmitype/StillImage" /><dc:title></dc:title></cc:Work></rdf:RDF></metadata><defs
   id="defs38" /><sodipodi:namedview
   pagecolor="#ffffff"
   bordercolor="#666666"
   borderopacity="1"
   objecttolerance="10"
   gridtolerance="10"
   guidetolerance="10"
   inkscape:pageopacity="0"
   inkscape:pageshadow="2"
   inkscape:window-width="1920"
   inkscape:window-height="1032"
   id="namedview36"
   showgrid="false"
   inkscape:zoom="0.38797555"
   inkscape:cx="-922.16388"
   inkscape:cy="-197.03274"
   inkscape:window-x="0"
   inkscape:window-y="24"
   inkscape:window-maximized="0"
   inkscape:current-layer="Capa_1" />
<g
   id="g3">
	<path
   style="stroke-width:30;stroke:#fa4646;stroke-opacity:1;fill:#fa4646;fill-opacity:1;stroke-miterlimit:4;stroke-dasharray:none"
   d="m 61.985046,266.87155 v -34.98674 l 37.695675,0.40948 c 36.163149,0.39283 37.957649,0.53005 44.139379,3.37516 13.8318,6.36602 19.76598,17.17634 18.26313,33.27003 -1.35395,14.49909 -7.45199,23.69687 -19.2203,28.9903 -6.52831,2.93646 -8.12584,3.0636 -43.826579,3.48803 l -37.051305,0.44048 z"
   id="path42"
   inkscape:connector-curvature="0" /><path
   style="stroke-width:30;stroke:#fa4646;stroke-opacity:1;fill:#fa4646;fill-opacity:1;stroke-miterlimit:4;stroke-dasharray:none"
   d="m 61.792991,157.30428 v -29.35083 l 31.171423,0.1231 c 32.884126,0.12987 33.311446,0.14747 41.145626,1.69475 8.51905,1.68255 12.52666,3.46005 16.29316,7.22655 4.1102,4.1102 6.10973,8.90658 6.74875,16.18854 0.34404,3.92054 -0.0155,9.36055 -0.8438,12.76755 -1.09353,4.49788 -3.81393,9.18958 -6.88077,11.86683 -4.09821,3.5776 -10.82937,6.36606 -19.00893,7.87468 -4.00443,0.73857 -4.21083,0.7434 -36.326388,0.85122 l -32.299071,0.10844 z"
   id="path44"
   inkscape:connector-curvature="0" /><path
   style="stroke-width:30;stroke:#fa4646;stroke-opacity:1;fill:#fa4646;fill-opacity:1;stroke-miterlimit:4;stroke-dasharray:none"
   d="m 291.83326,225.48178 c 0,-0.0695 0.29182,-1.58194 0.64848,-3.36108 2.31091,-11.5275 6.65265,-20.05741 13.55931,-26.63903 5.03418,-4.79726 9.78052,-7.2788 17.36637,-9.07972 4.70889,-1.11791 14.27869,-1.40876 19.48593,-0.59221 8.56134,1.3425 15.51967,4.49176 21.7249,9.83243 7.193,6.19083 11.91562,16.21547 13.09245,27.79113 l 0.22109,2.17475 h -43.04926 c -23.6771,0 -43.04927,-0.0568 -43.04927,-0.12627 z"
   id="path46"
   inkscape:connector-curvature="0" /><path
   id="Behance"
   d="M388.432,119.12H280.659V92.35h107.782v26.77H388.432z M208.912,228.895   c6.954,10.771,10.429,23.849,10.429,39.203c0,15.878-3.918,30.122-11.889,42.704c-5.071,8.326-11.367,15.359-18.932,21.021   c-8.52,6.548-18.607,11.038-30.203,13.437c-11.633,2.403-24.224,3.617-37.787,3.617H0V81.247h129.25   c32.579,0.53,55.676,9.969,69.315,28.506c8.184,11.369,12.239,25.011,12.239,40.868c0,16.362-4.104,29.454-12.368,39.401   c-4.597,5.577-11.388,10.65-20.378,15.229C191.675,210.236,202.007,218.086,208.912,228.895z M61.722,186.76h56.632   c11.638,0,21.046-2.212,28.292-6.634c7.241-4.415,10.854-12.263,10.854-23.531c0-12.449-4.784-20.712-14.375-24.689   c-8.244-2.763-18.792-4.186-31.591-4.186H61.722V186.76z M162.953,264.275c0-13.902-5.682-23.513-17.023-28.67   c-6.342-2.931-15.29-4.429-26.763-4.536H61.722v71.322h56.556c11.619,0,20.612-1.521,27.102-4.694   C157.084,291.863,162.953,280.76,162.953,264.275z M428.419,220.736c1.302,8.756,1.891,21.46,1.652,38.065H290.493   c0.77,19.266,7.421,32.739,20.035,40.449c7.607,4.835,16.83,7.196,27.63,7.196c11.388,0,20.67-2.879,27.815-8.797   c3.893-3.137,7.327-7.565,10.296-13.152h51.16c-1.34,11.379-7.5,22.92-18.57,34.648c-17.151,18.641-41.205,27.988-72.097,27.988   c-25.52,0-48.011-7.883-67.533-23.592C249.772,307.777,240,282.211,240,246.746c0-33.257,8.773-58.712,26.378-76.43   c17.67-17.751,40.474-26.586,68.583-26.586c16.661,0,31.68,2.978,45.079,8.965c13.357,5.993,24.396,15.425,33.09,28.388   C420.998,192.499,426.058,205.699,428.419,220.736z M378.062,225.73c-0.938-13.322-5.386-23.405-13.395-30.296   c-7.943-6.91-17.866-10.379-29.706-10.379c-12.886,0-22.836,3.708-29.906,10.996c-7.118,7.273-11.547,17.161-13.362,29.68H378.062   L378.062,225.73z" />
</g>
<g
   id="g5">
</g>
<g
   id="g7">
</g>
<g
   id="g9">
</g>
<g
   id="g11">
</g>
<g
   id="g13">
</g>
<g
   id="g15">
</g>
<g
   id="g17">
</g>
<g
   id="g19">
</g>
<g
   id="g21">
</g>
<g
   id="g23">
</g>
<g
   id="g25">
</g>
<g
   id="g27">
</g>
<g
   id="g29">
</g>
<g
   id="g31">
</g>
<g
   id="g33">
</g>
</svg>