<svg width="71" height="71" viewBox="0 0 71 71" version="1.1" xmlns="http://www.w3.org/2000/svg" xmlns:xlink="http://www.w3.org/1999/xlink">
<title>dribbble</title>
<desc>Created using Figma</desc>
<g id="Canvas" transform="translate(-819 -306)">
<g id="dribbble">
<g id="Vector">
<use xlink:href="#path0_fill" transform="translate(819.083 306)"/>
</g>
<g id="Vector">
<use xlink:href="#path1_fill" transform="translate(824.233 311.186)" fill="#FA4646"/>
<use xlink:href="#path2_fill" transform="translate(824.233 311.186)" fill="#FA4646"/>
<use xlink:href="#path3_fill" transform="translate(824.233 311.186)" fill="#FA4646"/>
<use xlink:href="#path4_fill" transform="translate(824.233 311.186)" fill="#FA4646"/>
<use xlink:href="#path5_fill" transform="translate(824.233 311.186)" fill="#FA4646"/>
<use xlink:href="#path6_fill" transform="translate(824.233 311.186)" fill="#FA4646"/>
</g>
</g>
</g>
<defs>
<path id="path0_fill" d="M 35.2784 70.5568C 15.8312 70.5568 0 54.7256 0 35.2784C 0 15.8312 15.8312 0 35.2784 0C 54.7256 0 70.5568 15.8312 70.5568 35.2784C 70.5568 54.7256 54.7256 70.5568 35.2784 70.5568ZM 65.0298 40.1056C 64.0009 39.7823 55.7104 37.304 46.2617 38.818C 50.2011 49.6484 51.8092 58.468 52.1179 60.3025C 58.8796 55.731 63.6892 48.4843 65.0386 40.1056L 65.0298 40.1056ZM 47.0525 63.0601C 46.6027 60.4142 44.8476 51.2066 40.6142 40.2174L 40.4202 40.2761C 23.3984 46.2 17.3129 57.9888 16.7837 59.0913C 21.8697 63.0836 28.308 65.459 35.2754 65.459C 39.45 65.459 43.4189 64.6065 47.0349 63.066L 47.0525 63.0601ZM 12.8913 55.4753C 13.5734 54.2993 21.8432 40.6142 37.3863 35.5871C 37.7831 35.4548 38.18 35.3401 38.5769 35.2343C 37.8125 33.5145 36.9894 31.8035 36.1309 30.1189C 21.0788 34.6169 6.48534 34.4258 5.1624 34.3964L 5.15064 35.3137C 5.15064 43.0543 8.08463 50.1218 12.8942 55.4664L 12.8913 55.4753ZM 5.77683 29.1488C 7.12917 29.1723 19.5442 29.2252 33.6379 25.4798C 28.646 16.6073 23.2602 9.14004 22.4664 8.05229C 14.0349 12.0211 7.73772 19.7824 5.77977 29.1311L 5.77683 29.1488ZM 28.2227 6.0326C 29.0517 7.14975 34.5287 14.5994 39.4589 23.6718C 50.1747 19.6589 54.7168 13.5587 55.2548 12.7884C 49.9336 8.05523 42.9367 5.18592 35.2784 5.18592C 32.853 5.18592 30.4864 5.47991 28.2227 6.02378L 28.2227 6.0326ZM 58.6062 16.2722C 57.9653 17.1247 52.9176 23.6012 41.7784 28.1492C 42.484 29.5897 43.1602 31.045 43.7775 32.5178C 44.0127 33.047 44.2185 33.5762 44.4243 34.076C 54.4492 32.8118 64.4154 34.8403 65.4149 35.0461C 65.3561 27.9317 62.8279 21.4052 58.6239 16.2898L 58.6062 16.2722Z"/>
<path id="path1_fill" d="M 0.626191 23.9628C 1.97853 23.9864 14.3936 24.0393 28.4873 20.2939C 23.4954 11.4214 18.1096 3.95412 17.3158 2.86637C 8.88427 6.83519 2.58708 14.5964 0.629131 23.9452L 0.626191 23.9628Z"/>
<path id="path2_fill" d="M 53.4556 11.0862C 52.8147 11.9388 47.7669 18.4153 36.6278 22.9633C 37.3333 24.4038 38.0095 25.8591 38.6269 27.3319C 38.8621 27.8611 39.0679 28.3903 39.2737 28.8901C 49.2986 27.6259 59.2647 29.6544 60.2643 29.8602C 60.2055 22.7457 57.6772 16.2192 53.4732 11.1039L 53.4556 11.0862Z"/>
<path id="path3_fill" d="M 23.0721 0.846681C 23.9011 1.96383 29.3781 9.41345 34.3082 18.4859C 45.024 14.473 49.5661 8.37274 50.1041 7.60249C 44.783 2.86931 37.7861 0 30.1277 0C 27.7023 0 25.3358 0.293986 23.0721 0.837862L 23.0721 0.846681Z"/>
<path id="path4_fill" d="M 7.74066 50.2893C 8.42271 49.1134 16.6926 35.4283 32.2356 30.4011C 32.6325 30.2689 33.0294 30.1542 33.4263 30.0484C 32.6619 28.3285 31.8387 26.6175 30.9803 24.933C 15.9282 29.431 1.3347 29.2399 0.0117593 29.2105L 0 30.1277C 0 37.8684 2.93399 44.9358 7.74361 50.2805L 7.74066 50.2893Z"/>
<path id="path5_fill" d="M 41.9019 57.8742C 41.4521 55.2283 39.697 46.0206 35.4636 35.0314L 35.2696 35.0902C 18.2477 41.0141 12.1622 52.8029 11.633 53.9054C 16.719 57.8977 23.1573 60.2731 30.1248 60.2731C 34.2994 60.2731 38.2682 59.4206 41.8843 57.8801L 41.9019 57.8742Z"/>
<path id="path6_fill" d="M 59.8792 34.9197C 58.8502 34.5963 50.5598 32.118 41.1111 33.6321C 45.0505 44.4625 46.6586 53.2821 46.9673 55.1166C 53.729 50.5451 58.5386 43.2983 59.888 34.9197L 59.8792 34.9197Z"/>
</defs>
</svg>
