<svg width="71" height="72" viewBox="0 0 71 72" version="1.1" xmlns="http://www.w3.org/2000/svg" xmlns:xlink="http://www.w3.org/1999/xlink">
<title>dribbble</title>
<desc>Created using Figma</desc>
<g id="Canvas" transform="translate(-819 -303)">
<g id="dribbble">
<g id="Vector">
<use xlink:href="#path0_fill" transform="translate(819.083 303.822)"/>
</g>
</g>
</g>
<defs>
<path id="path0_fill" d="M 35.2784 70.5568C 15.8312 70.5568 0 54.7256 0 35.2784C 0 15.8312 15.8312 0 35.2784 0C 54.7256 0 70.5568 15.8312 70.5568 35.2784C 70.5568 54.7256 54.7256 70.5568 35.2784 70.5568ZM 65.0298 40.1056C 64.0009 39.7823 55.7104 37.304 46.2617 38.818C 50.2011 49.6484 51.8092 58.468 52.1179 60.3025C 58.8796 55.731 63.6892 48.4843 65.0386 40.1056L 65.0298 40.1056ZM 47.0525 63.0601C 46.6027 60.4142 44.8476 51.2066 40.6142 40.2174L 40.4202 40.2761C 23.3984 46.2 17.3129 57.9888 16.7837 59.0913C 21.8697 63.0836 28.308 65.459 35.2754 65.459C 39.4501 65.459 43.4189 64.6065 47.0349 63.066L 47.0525 63.0601ZM 12.8913 55.4753C 13.5734 54.2993 21.8432 40.6142 37.3863 35.5871C 37.7831 35.4548 38.18 35.3401 38.5769 35.2343C 37.8125 33.5145 36.9894 31.8035 36.1309 30.1189C 21.0788 34.6169 6.48534 34.4258 5.1624 34.3964L 5.15064 35.3137C 5.15064 43.0543 8.08463 50.1218 12.8942 55.4664L 12.8913 55.4753ZM 5.77683 29.1488C 7.12917 29.1723 19.5442 29.2252 33.6379 25.4798C 28.646 16.6073 23.2602 9.14004 22.4664 8.05229C 14.0349 12.0211 7.73772 19.7824 5.77977 29.1311L 5.77683 29.1488ZM 28.2227 6.0326C 29.0517 7.14975 34.5287 14.5994 39.4589 23.6718C 50.1747 19.6589 54.7168 13.5587 55.2548 12.7884C 49.9336 8.05523 42.9367 5.18592 35.2784 5.18592C 32.853 5.18592 30.4864 5.47991 28.2227 6.02378L 28.2227 6.0326ZM 58.6062 16.2722C 57.9653 17.1247 52.9176 23.6012 41.7784 28.1492C 42.484 29.5897 43.1602 31.045 43.7775 32.5178C 44.0127 33.047 44.2185 33.5762 44.4243 34.076C 54.4492 32.8118 64.4154 34.8403 65.4149 35.0461C 65.3561 27.9317 62.8279 21.4052 58.6239 16.2898L 58.6062 16.2722Z"/>
</defs>
</svg>
