<svg width="73" height="59" viewBox="0 0 73 59" version="1.1" xmlns="http://www.w3.org/2000/svg" xmlns:xlink="http://www.w3.org/1999/xlink">
<title>mail</title>
<desc>Created using Figma</desc>
<g id="Canvas" transform="translate(-1034 -310)">
<g id="mail">
<g id="Vector">
<use xlink:href="#path0_stroke" transform="translate(1037.1 312.509)"/>
</g>
<g id="Vector">
<use xlink:href="#path1_stroke" transform="translate(1037.1 319.157)"/>
</g>
</g>
</g>
<defs>
<path id="path0_stroke" d="M 6.64767 2.5L 59.8291 2.5L 59.8291 -2.5L 6.64767 -2.5L 6.64767 2.5ZM 59.8291 2.5C 62.1046 2.5 63.9767 4.37217 63.9767 6.64767L 68.9767 6.64767C 68.9767 1.61074 64.866 -2.5 59.8291 -2.5L 59.8291 2.5ZM 63.9767 6.64767L 63.9767 46.5337L 68.9767 46.5337L 68.9767 6.64767L 63.9767 6.64767ZM 63.9767 46.5337C 63.9767 48.8092 62.1046 50.6814 59.8291 50.6814L 59.8291 55.6814C 64.866 55.6814 68.9767 51.5707 68.9767 46.5337L 63.9767 46.5337ZM 59.8291 50.6814L 6.64767 50.6814L 6.64767 55.6814L 59.8291 55.6814L 59.8291 50.6814ZM 6.64767 50.6814C 4.37217 50.6814 2.5 48.8092 2.5 46.5337L -2.5 46.5337C -2.5 51.5707 1.61074 55.6814 6.64767 55.6814L 6.64767 50.6814ZM 2.5 46.5337L 2.5 6.64767L -2.5 6.64767L -2.5 46.5337L 2.5 46.5337ZM 2.5 6.64767C 2.5 4.37217 4.37217 2.5 6.64767 2.5L 6.64767 -2.5C 1.61074 -2.5 -2.5 1.61074 -2.5 6.64767L 2.5 6.64767Z"/>
<path id="path1_stroke" d="M 67.9104 2.04808C 69.0415 1.25629 69.3166 -0.302533 68.5248 -1.43366C 67.733 -2.56478 66.1742 -2.83987 65.0431 -2.04808L 67.9104 2.04808ZM 33.2384 23.2669L 31.8047 25.3149C 32.6655 25.9175 33.8112 25.9175 34.672 25.3149L 33.2384 23.2669ZM 1.43366 -2.04808C 0.302533 -2.83987 -1.25629 -2.56478 -2.04808 -1.43366C -2.83987 -0.302533 -2.56478 1.25629 -1.43366 2.04808L 1.43366 -2.04808ZM 65.0431 -2.04808L 31.8047 21.2188L 34.672 25.3149L 67.9104 2.04808L 65.0431 -2.04808ZM 34.672 21.2188L 1.43366 -2.04808L -1.43366 2.04808L 31.8047 25.3149L 34.672 21.2188Z"/>
</defs>
</svg>
