<svg width="59" height="62" viewBox="0 0 59 62" version="1.1" xmlns="http://www.w3.org/2000/svg" xmlns:xlink="http://www.w3.org/1999/xlink">
<title>github</title>
<desc>Created using Figma</desc>
<g id="Canvas" transform="translate(-1145 -308)">
<g id="github">
<g id="Vector">
<use xlink:href="#path0_stroke" transform="translate(1148.08 310.713)"/>
</g>
</g>
</g>
<defs>
<path id="path0_stroke" d="M 18.9005 48.6737L 19.6189 51.0683C 20.6263 50.766 21.3369 49.8655 21.3965 48.8154C 21.4561 47.7653 20.8521 46.7902 19.8853 46.3758L 18.9005 48.6737ZM 0 40.5735L 0.606339 38.1481C -0.658028 37.832 -1.95311 38.5403 -2.36918 39.7754C -2.78525 41.0104 -2.1827 42.3579 -0.984798 42.8713L 0 40.5735ZM 35.301 56.7739C 35.301 58.1546 36.4203 59.2739 37.801 59.2739C 39.1818 59.2739 40.301 58.1546 40.301 56.7739L 35.301 56.7739ZM 37.801 46.3246L 35.3087 46.1286C 35.3036 46.1938 35.301 46.2592 35.301 46.3246L 37.801 46.3246ZM 35.263 39.2774L 34.986 36.7928C 34.038 36.8985 33.2328 37.5344 32.9102 38.4321C 32.5877 39.3297 32.8041 40.3327 33.468 41.0176L 35.263 39.2774ZM 52.6515 20.3769L 55.1515 20.3769L 55.1515 20.3764L 52.6515 20.3769ZM 48.6013 10.2516L 46.2591 9.37752C 45.9246 10.2739 46.131 11.2825 46.7907 11.9754L 48.6013 10.2516ZM 48.3583 0.0723434L 45.8583 0.0723434C 45.8583 0.410937 45.9271 0.746003 46.0605 1.05722L 48.3583 0.0723434ZM 37.801 4.06845L 37.1471 6.48141C 37.8456 6.67072 38.5919 6.54804 39.1931 6.14506L 37.801 4.06845ZM 18.9005 4.06845L 17.5085 6.14506C 18.1097 6.54804 18.856 6.67072 19.5545 6.48141L 18.9005 4.06845ZM 8.34323 0.0723434L 7.63232 -2.32445C 6.91977 -2.1131 6.3382 -1.59566 6.0454 -0.912529L 8.34323 0.0723434ZM 8.10022 10.2516L 9.91085 11.9755C 10.5706 11.2825 10.777 10.2739 10.4424 9.37752L 8.10022 10.2516ZM 4.05011 20.4579L 6.55015 20.4579L 6.55008 20.4446L 4.05011 20.4579ZM 21.4386 39.3584L 23.2351 41.097C 23.8942 40.4159 24.1115 39.4206 23.7962 38.5268C 23.4809 37.633 22.6873 36.9943 21.7467 36.8775L 21.4386 39.3584ZM 18.9005 46.3246L 21.4005 46.3246C 21.4005 46.2661 21.3985 46.2076 21.3944 46.1492L 18.9005 46.3246ZM 16.4005 56.7739C 16.4005 58.1546 17.5198 59.2739 18.9005 59.2739C 20.2812 59.2739 21.4005 58.1546 21.4005 56.7739L 16.4005 56.7739ZM 18.1822 46.2791C 15.0913 47.2064 13.02 47.2091 11.581 46.8723C 10.1741 46.543 9.13414 45.8346 8.18044 44.8809C 7.68953 44.39 7.23095 43.8435 6.74746 43.2379C 6.2948 42.6709 5.7548 41.9661 5.23601 41.3571C 4.18736 40.126 2.74605 38.683 0.606339 38.1481L -0.606339 42.9988C -0.0459783 43.1389 0.537775 43.5522 1.4298 44.5994C 1.88135 45.1295 2.29059 45.6692 2.83991 46.3573C 3.3584 47.0068 3.95454 47.726 4.64491 48.4164C 6.05378 49.8253 7.88267 51.1419 10.4415 51.7407C 12.9682 52.3321 15.9595 52.1661 19.6189 51.0683L 18.1822 46.2791ZM -0.984798 42.8713L 17.9157 50.9716L 19.8853 46.3758L 0.984798 38.2756L -0.984798 42.8713ZM 40.301 56.7739L 40.301 46.3246L 35.301 46.3246L 35.301 56.7739L 40.301 56.7739ZM 40.2933 46.5207C 40.4225 44.8795 40.2007 43.2295 39.6429 41.6806L 34.9387 43.3749C 35.2561 44.2561 35.3822 45.1948 35.3087 46.1286L 40.2933 46.5207ZM 39.6429 41.6806C 39.085 40.1317 38.2039 38.7193 37.0579 37.5373L 33.468 41.0176C 34.12 41.6901 34.6213 42.4936 34.9387 43.3749L 39.6429 41.6806ZM 35.5399 41.762C 39.9195 41.2739 44.8793 40.1656 48.7455 36.9146C 52.7332 33.5615 55.1515 28.2888 55.1515 20.3769L 50.1515 20.3769C 50.1515 27.2075 48.1146 30.9124 45.5276 33.0877C 42.8191 35.3652 39.0847 36.336 34.986 36.7928L 35.5399 41.762ZM 55.1515 20.3764C 55.1506 15.9651 53.4538 11.7228 50.412 8.52782L 46.7907 11.9754C 48.9476 14.241 50.1509 17.2492 50.1515 20.3774L 55.1515 20.3764ZM 50.9436 11.1257C 52.3992 7.22529 52.2963 2.91401 50.6562 -0.912529L 46.0605 1.05722C 47.1941 3.70195 47.2652 6.68171 46.2591 9.37752L 50.9436 11.1257ZM 50.8583 0.0723434C 50.3617 -1.4231 49.0668 -2.32516 49.0644 -2.32588C 49.0636 -2.32612 49.0611 -2.32684 49.0595 -2.32733C 49.0562 -2.3283 49.0528 -2.32927 49.0494 -2.33026C 49.0425 -2.33222 49.0355 -2.33422 49.0282 -2.33625C 49.0137 -2.3403 48.9984 -2.34446 48.9822 -2.34869C 48.9498 -2.35717 48.9141 -2.36596 48.8751 -2.37484C 48.7969 -2.39261 48.7055 -2.41071 48.6008 -2.42741C 48.391 -2.46087 48.1292 -2.48849 47.8141 -2.49717C 47.1827 -2.51454 46.3489 -2.45551 45.3021 -2.22311C 43.2129 -1.7593 40.2883 -0.608521 36.409 1.99185L 39.1931 6.14506C 42.685 3.80429 45.0391 2.95701 46.3857 2.65805C 47.0568 2.50907 47.4802 2.49554 47.6766 2.50094C 47.7754 2.50366 47.8201 2.51127 47.8133 2.51019C 47.8101 2.50967 47.7943 2.50705 47.7665 2.50071C 47.7525 2.49755 47.7356 2.49346 47.7158 2.48826C 47.7058 2.48566 47.6952 2.48278 47.6838 2.4796C 47.6781 2.47801 47.6722 2.47635 47.6661 2.4746C 47.6631 2.47373 47.66 2.47284 47.6569 2.47193C 47.6554 2.47147 47.653 2.47078 47.6522 2.47055C 47.6498 2.46984 46.3549 1.56779 45.8583 0.0723434L 50.8583 0.0723434ZM 38.455 1.6555C 31.8382 -0.13779 24.8634 -0.13779 18.2466 1.6555L 19.5545 6.48141C 25.3148 4.92024 31.3868 4.92024 37.1471 6.48141L 38.455 1.6555ZM 20.2925 1.99185C 16.4133 -0.608521 13.4887 -1.7593 11.3995 -2.22311C 10.3527 -2.45551 9.51888 -2.51454 8.88745 -2.49717C 8.57241 -2.48849 8.3106 -2.46087 8.10081 -2.42741C 7.99604 -2.41071 7.90466 -2.39261 7.82651 -2.37484C 7.78745 -2.36596 7.75175 -2.35717 7.71938 -2.34869C 7.70319 -2.34446 7.68784 -2.3403 7.67333 -2.33625C 7.66608 -2.33422 7.65903 -2.33222 7.6522 -2.33026C 7.64878 -2.32927 7.64541 -2.3283 7.6421 -2.32733C 7.64045 -2.32684 7.638 -2.32612 7.63717 -2.32588C 7.63474 -2.32516 7.63232 -2.32445 8.34323 0.0723434C 9.05414 2.46913 9.05175 2.46984 9.04937 2.47055C 9.04859 2.47078 9.04621 2.47147 9.04465 2.47193C 9.04153 2.47284 9.03846 2.47373 9.03543 2.4746C 9.02938 2.47635 9.0235 2.47801 9.0178 2.4796C 9.00641 2.48278 8.99575 2.48566 8.98582 2.48826C 8.96595 2.49346 8.94904 2.49755 8.93511 2.50071C 8.90724 2.50705 8.89151 2.50967 8.88826 2.51019C 8.88149 2.51127 8.92619 2.50366 9.02501 2.50094C 9.22132 2.49554 9.64477 2.50907 10.3159 2.65805C 11.6625 2.95701 14.0165 3.80429 17.5085 6.14506L 20.2925 1.99185ZM 6.0454 -0.912529C 4.40531 2.91401 4.30239 7.22529 5.75801 11.1257L 10.4424 9.37752C 9.43637 6.68171 9.50751 3.70195 10.6411 1.05722L 6.0454 -0.912529ZM 6.2896 8.52778C 3.22515 11.7465 1.52652 16.0271 1.55015 20.4712L 6.55008 20.4446C 6.53332 17.2933 7.73784 14.2579 9.91085 11.9755L 6.2896 8.52778ZM 1.55011 20.4579C 1.55011 28.3238 3.97333 33.5657 7.95607 36.9146C 11.8134 40.1581 16.7633 41.297 21.1305 41.8394L 21.7467 36.8775C 17.6356 36.3669 13.8913 35.3727 11.174 33.0877C 8.58202 30.9083 6.55011 27.2264 6.55011 20.4579L 1.55011 20.4579ZM 19.6421 37.6199C 18.5097 38.79 17.6364 40.1855 17.0789 41.7155L 21.7768 43.4271C 22.094 42.5567 22.5908 41.7627 23.2351 41.097L 19.6421 37.6199ZM 17.0789 41.7155C 16.5215 43.2455 16.2924 44.8757 16.4067 46.5L 21.3944 46.1492C 21.3294 45.2251 21.4597 44.2976 21.7768 43.4271L 17.0789 41.7155ZM 16.4005 46.3246L 16.4005 56.7739L 21.4005 56.7739L 21.4005 46.3246L 16.4005 46.3246Z"/>
</defs>
</svg>
