<svg width="89" height="98" viewBox="0 0 89 98" version="1.1" xmlns="http://www.w3.org/2000/svg" xmlns:xlink="http://www.w3.org/1999/xlink">
<title>home</title>
<desc>Created using Figma</desc>
<g id="Canvas" transform="translate(-3445 191)">
<g id="home">
<g id="Vector">
<use xlink:href="#path0_stroke" transform="translate(3449 -187)"/>
</g>
<g id="Vector">
<use xlink:href="#path1_stroke" transform="translate(3476 -142)"/>
</g>
</g>
</g>
<defs>
<path id="path0_stroke" d="M 0 31.5L -2.14879 28.7373C -3.00135 29.4004 -3.5 30.4199 -3.5 31.5L 0 31.5ZM 40.5 0L 42.6488 -2.76273C 41.3849 -3.74576 39.6151 -3.74576 38.3512 -2.76273L 40.5 0ZM 81 31.5L 84.5 31.5C 84.5 30.4199 84.0013 29.4004 83.1488 28.7373L 81 31.5ZM 0 81L -3.5 81L 0 81ZM 2.14879 34.2627L 42.6488 2.76273L 38.3512 -2.76273L -2.14879 28.7373L 2.14879 34.2627ZM 38.3512 2.76273L 78.8512 34.2627L 83.1488 28.7373L 42.6488 -2.76273L 38.3512 2.76273ZM 77.5 31.5L 77.5 81L 84.5 81L 84.5 31.5L 77.5 31.5ZM 77.5 81C 77.5 82.4587 76.9205 83.8576 75.8891 84.8891L 80.8388 89.8388C 83.183 87.4946 84.5 84.3152 84.5 81L 77.5 81ZM 75.8891 84.8891C 74.8576 85.9205 73.4587 86.5 72 86.5L 72 93.5C 75.3152 93.5 78.4946 92.183 80.8388 89.8388L 75.8891 84.8891ZM 72 86.5L 9 86.5L 9 93.5L 72 93.5L 72 86.5ZM 9 86.5C 7.54131 86.5 6.14236 85.9205 5.11091 84.8891L 0.161165 89.8388C 2.50537 92.183 5.68479 93.5 9 93.5L 9 86.5ZM 5.11091 84.8891C 4.07946 83.8576 3.5 82.4587 3.5 81L -3.5 81C -3.5 84.3152 -2.18304 87.4946 0.161165 89.8388L 5.11091 84.8891ZM 3.5 81L 3.5 31.5L -3.5 31.5L -3.5 81L 3.5 81Z"/>
<path id="path1_stroke" d="M -3.5 45C -3.5 46.933 -1.933 48.5 0 48.5C 1.933 48.5 3.5 46.933 3.5 45L -3.5 45ZM 0 0L 0 -3.5C -1.933 -3.5 -3.5 -1.933 -3.5 7.77156e-16L 0 0ZM 27 0L 30.5 0C 30.5 -1.933 28.933 -3.5 27 -3.5L 27 0ZM 23.5 45C 23.5 46.933 25.067 48.5 27 48.5C 28.933 48.5 30.5 46.933 30.5 45L 23.5 45ZM 3.5 45L 3.5 0L -3.5 0L -3.5 45L 3.5 45ZM 0 3.5L 27 3.5L 27 -3.5L 0 -3.5L 0 3.5ZM 23.5 0L 23.5 45L 30.5 45L 30.5 0L 23.5 0Z"/>
</defs>
</svg>
