<svg width="65" height="62" viewBox="0 0 65 62" version="1.1" xmlns="http://www.w3.org/2000/svg" xmlns:xlink="http://www.w3.org/1999/xlink">
<title>linkedin</title>
<desc>Created using Figma</desc>
<g id="Canvas" transform="translate(-899 -291)">
<g id="linkedin">
<g id="Vector">
<use xlink:href="#path0_fill" transform="translate(925.6 311.684)" fill="#59D1F7"/>
<use xlink:href="#path1_stroke" transform="translate(925.6 311.684)"/>
</g>
<g id="Vector">
<use xlink:href="#path2_fill" transform="translate(902 314.632)" fill="#59D1F7"/>
<use xlink:href="#path3_stroke" transform="translate(902 314.632)"/>
</g>
<g id="Vector">
<use xlink:href="#path4_fill" transform="translate(902 294)" fill="#59D1F7"/>
<use xlink:href="#path5_stroke" transform="translate(902 294)"/>
</g>
</g>
</g>
<defs>
<path id="path0_fill" d="M 17.7 2.61779e-15C 22.3943 2.61779e-15 26.8964 1.86315 30.2158 5.17959C 33.5352 8.49602 35.4 12.9941 35.4 17.6842L 35.4 38.3158L 23.6 38.3158L 23.6 17.6842C 23.6 16.1208 22.9784 14.6215 21.8719 13.516C 20.7655 12.4105 19.2648 11.7895 17.7 11.7895C 16.1352 11.7895 14.6345 12.4105 13.5281 13.516C 12.4216 14.6215 11.8 16.1208 11.8 17.6842L 11.8 38.3158L 0 38.3158L 0 17.6842C 0 12.9941 1.86482 8.49602 5.18421 5.17959C 8.5036 1.86315 13.0057 5.23558e-15 17.7 2.61779e-15L 17.7 2.61779e-15Z"/>
<path id="path1_stroke" d="M 17.7 -2.5C 16.3193 -2.5 15.2 -1.38071 15.2 2.61779e-15C 15.2 1.38071 16.3193 2.5 17.7 2.5L 17.7 -2.5ZM 35.4 38.3158L 35.4 40.8158C 36.7807 40.8158 37.9 39.6965 37.9 38.3158L 35.4 38.3158ZM 23.6 38.3158L 21.1 38.3158C 21.1 39.6965 22.2193 40.8158 23.6 40.8158L 23.6 38.3158ZM 11.8 38.3158L 11.8 40.8158C 13.1807 40.8158 14.3 39.6965 14.3 38.3158L 11.8 38.3158ZM 0 38.3158L -2.5 38.3158C -2.5 39.6965 -1.38071 40.8158 5.55112e-16 40.8158L 0 38.3158ZM 17.7 2.5C 21.732 2.5 25.5984 4.1003 28.4488 6.94814L 31.9828 3.41103C 28.1944 -0.373996 23.0567 -2.5 17.7 -2.5L 17.7 2.5ZM 28.4488 6.94814C 31.2991 9.7959 32.9 13.6578 32.9 17.6842L 37.9 17.6842C 37.9 12.3303 35.7713 7.19613 31.9828 3.41103L 28.4488 6.94814ZM 32.9 17.6842L 32.9 38.3158L 37.9 38.3158L 37.9 17.6842L 32.9 17.6842ZM 35.4 35.8158L 23.6 35.8158L 23.6 40.8158L 35.4 40.8158L 35.4 35.8158ZM 26.1 38.3158L 26.1 17.6842L 21.1 17.6842L 21.1 38.3158L 26.1 38.3158ZM 26.1 17.6842C 26.1 15.4571 25.2145 13.3216 23.6389 11.7474L 20.105 15.2846C 20.7423 15.9214 21.1 16.7846 21.1 17.6842L 26.1 17.6842ZM 23.6389 11.7474C 22.0634 10.1734 19.9271 9.28947 17.7 9.28947L 17.7 14.2895C 18.6025 14.2895 19.4675 14.6477 20.105 15.2846L 23.6389 11.7474ZM 17.7 9.28947C 15.4729 9.28947 13.3366 10.1734 11.7611 11.7474L 15.295 15.2846C 15.9325 14.6477 16.7975 14.2895 17.7 14.2895L 17.7 9.28947ZM 11.7611 11.7474C 10.1855 13.3216 9.3 15.4571 9.3 17.6842L 14.3 17.6842C 14.3 16.7846 14.6577 15.9214 15.295 15.2846L 11.7611 11.7474ZM 9.3 17.6842L 9.3 38.3158L 14.3 38.3158L 14.3 17.6842L 9.3 17.6842ZM 11.8 35.8158L 0 35.8158L 0 40.8158L 11.8 40.8158L 11.8 35.8158ZM 2.5 38.3158L 2.5 17.6842L -2.5 17.6842L -2.5 38.3158L 2.5 38.3158ZM 2.5 17.6842C 2.5 13.6578 4.10088 9.79591 6.95119 6.94814L 3.41723 3.41103C -0.371248 7.19613 -2.5 12.3303 -2.5 17.6842L 2.5 17.6842ZM 6.95119 6.94814C 9.80157 4.1003 13.668 2.5 17.7 2.5L 17.7 -2.5C 12.3433 -2.5 7.20564 -0.373996 3.41723 3.41103L 6.95119 6.94814Z"/>
<path id="path2_fill" d="M 11.8 0L 0 0L 0 35.3684L 11.8 35.3684L 11.8 0Z"/>
<path id="path3_stroke" d="M 0 0L 0 -2.5C -1.38071 -2.5 -2.5 -1.38071 -2.5 5.55112e-16L 0 0ZM 11.8 0L 14.3 0C 14.3 -1.38071 13.1807 -2.5 11.8 -2.5L 11.8 0ZM 11.8 35.3684L 11.8 37.8684C 13.1807 37.8684 14.3 36.7491 14.3 35.3684L 11.8 35.3684ZM 0 35.3684L -2.5 35.3684C -2.5 36.7491 -1.38071 37.8684 5.55112e-16 37.8684L 0 35.3684ZM 0 2.5L 11.8 2.5L 11.8 -2.5L 0 -2.5L 0 2.5ZM 9.3 0L 9.3 35.3684L 14.3 35.3684L 14.3 0L 9.3 0ZM 11.8 32.8684L 0 32.8684L 0 37.8684L 11.8 37.8684L 11.8 32.8684ZM 2.5 35.3684L 2.5 0L -2.5 0L -2.5 35.3684L 2.5 35.3684Z"/>
<path id="path4_fill" d="M 5.9 11.7895C 9.15848 11.7895 11.8 9.15031 11.8 5.89474C 11.8 2.63916 9.15848 0 5.9 0C 2.64152 0 0 2.63916 0 5.89474C 0 9.15031 2.64152 11.7895 5.9 11.7895Z"/>
<path id="path5_stroke" d="M 9.3 5.89474C 9.3 7.7675 7.77987 9.28947 5.9 9.28947L 5.9 14.2895C 10.5371 14.2895 14.3 10.5331 14.3 5.89474L 9.3 5.89474ZM 5.9 9.28947C 4.02013 9.28947 2.5 7.7675 2.5 5.89474L -2.5 5.89474C -2.5 10.5331 1.26291 14.2895 5.9 14.2895L 5.9 9.28947ZM 2.5 5.89474C 2.5 4.02198 4.02013 2.5 5.9 2.5L 5.9 -2.5C 1.26291 -2.5 -2.5 1.25635 -2.5 5.89474L 2.5 5.89474ZM 5.9 2.5C 7.77987 2.5 9.3 4.02198 9.3 5.89474L 14.3 5.89474C 14.3 1.25635 10.5371 -2.5 5.9 -2.5L 5.9 2.5Z"/>
</defs>
</svg>
