<svg width="970" height="190" viewBox="0 0 970 190" version="1.1" xmlns="http://www.w3.org/2000/svg" xmlns:xlink="http://www.w3.org/1999/xlink">
<title>blog</title>
<desc>Created using Figma</desc>
<g id="Canvas" transform="translate(-4381 236)">
<g id="blog">
<use xlink:href="#path0_fill" transform="translate(4381.16 -235.776)" fill="#75FF69"/>
<use xlink:href="#path1_fill" transform="translate(4381.16 -235.776)" fill="#75FF69"/>
<use xlink:href="#path2_fill" transform="translate(4381.16 -235.776)" fill="#75FF69"/>
<use xlink:href="#path3_fill" transform="translate(4381.16 -235.776)" fill="#75FF69"/>
<use xlink:href="#path4_fill" transform="translate(4381.16 -235.776)" fill="#75FF69"/>
<use xlink:href="#path5_fill" transform="translate(4381.16 -235.776)" fill="#75FF69"/>
<use xlink:href="#path6_fill" transform="translate(4381.16 -235.776)" fill="#75FF69"/>
</g>
</g>
<defs>
<path id="path0_fill" fill-rule="evenodd" d="M 94.842 176.684C 140.042 176.684 176.684 140.042 176.684 94.842C 176.684 49.6419 140.042 13 94.842 13C 49.6419 13 13 49.6419 13 94.842C 13 140.042 49.6419 176.684 94.842 176.684ZM 94.842 189.684C 147.222 189.684 189.684 147.222 189.684 94.842C 189.684 42.4622 147.222 0 94.842 0C 42.4622 0 0 42.4622 0 94.842C 0 147.222 42.4622 189.684 94.842 189.684Z"/>
<path id="path1_fill" fill-rule="evenodd" d="M 224.842 176.684C 270.042 176.684 306.684 140.042 306.684 94.842C 306.684 49.6419 270.042 13 224.842 13C 179.642 13 143 49.6419 143 94.842C 143 140.042 179.642 176.684 224.842 176.684ZM 224.842 189.684C 277.222 189.684 319.684 147.222 319.684 94.842C 319.684 42.4622 277.222 0 224.842 0C 172.462 0 130 42.4622 130 94.842C 130 147.222 172.462 189.684 224.842 189.684Z"/>
<path id="path2_fill" fill-rule="evenodd" d="M 354.842 176.684C 400.042 176.684 436.684 140.042 436.684 94.842C 436.684 49.6419 400.042 13 354.842 13C 309.642 13 273 49.6419 273 94.842C 273 140.042 309.642 176.684 354.842 176.684ZM 354.842 189.684C 407.222 189.684 449.684 147.222 449.684 94.842C 449.684 42.4622 407.222 0 354.842 0C 302.462 0 260 42.4622 260 94.842C 260 147.222 302.462 189.684 354.842 189.684Z"/>
<path id="path3_fill" fill-rule="evenodd" d="M 484.842 176.684C 530.042 176.684 566.684 140.042 566.684 94.842C 566.684 49.6419 530.042 13 484.842 13C 439.642 13 403 49.6419 403 94.842C 403 140.042 439.642 176.684 484.842 176.684ZM 484.842 189.684C 537.222 189.684 579.684 147.222 579.684 94.842C 579.684 42.4622 537.222 0 484.842 0C 432.462 0 390 42.4622 390 94.842C 390 147.222 432.462 189.684 484.842 189.684Z"/>
<path id="path4_fill" fill-rule="evenodd" d="M 614.842 176.684C 660.042 176.684 696.684 140.042 696.684 94.842C 696.684 49.6419 660.042 13 614.842 13C 569.642 13 533 49.6419 533 94.842C 533 140.042 569.642 176.684 614.842 176.684ZM 614.842 189.684C 667.222 189.684 709.684 147.222 709.684 94.842C 709.684 42.4622 667.222 0 614.842 0C 562.462 0 520 42.4622 520 94.842C 520 147.222 562.462 189.684 614.842 189.684Z"/>
<path id="path5_fill" fill-rule="evenodd" d="M 744.842 176.684C 790.042 176.684 826.684 140.042 826.684 94.842C 826.684 49.6419 790.042 13 744.842 13C 699.642 13 663 49.6419 663 94.842C 663 140.042 699.642 176.684 744.842 176.684ZM 744.842 189.684C 797.222 189.684 839.684 147.222 839.684 94.842C 839.684 42.4622 797.222 0 744.842 0C 692.462 0 650 42.4622 650 94.842C 650 147.222 692.462 189.684 744.842 189.684Z"/>
<path id="path6_fill" fill-rule="evenodd" d="M 874.842 176.684C 920.042 176.684 956.684 140.042 956.684 94.842C 956.684 49.6419 920.042 13 874.842 13C 829.642 13 793 49.6419 793 94.842C 793 140.042 829.642 176.684 874.842 176.684ZM 874.842 189.684C 927.222 189.684 969.684 147.222 969.684 94.842C 969.684 42.4622 927.222 0 874.842 0C 822.462 0 780 42.4622 780 94.842C 780 147.222 822.462 189.684 874.842 189.684Z"/>
</defs>
</svg>
