<svg width="1005" height="119" viewBox="0 0 1005 119" version="1.1" xmlns="http://www.w3.org/2000/svg" xmlns:xlink="http://www.w3.org/1999/xlink">
<title>work</title>
<desc>Created using Figma</desc>
<g id="Canvas" transform="translate(-2175 202)">
<g id="work">
<use xlink:href="#path0_stroke" transform="translate(2179.61 -191.914)" fill="#FFDF36"/>
</g>
</g>
<defs>
<path id="path0_stroke" d="M 99.5298 0L 104.126 -4.59619L 99.5298 -9.19239L 94.9336 -4.5962L 99.5298 0ZM 199.059 99.5297L 194.463 104.126L 199.059 108.722L 203.656 104.126L 199.059 99.5297ZM 298.589 0L 303.185 -4.59619L 298.589 -9.19239L 293.993 -4.59619L 298.589 0ZM 398.119 99.5297L 393.523 104.126L 398.119 108.722L 402.715 104.126L 398.119 99.5297ZM 497.649 0L 502.245 -4.59619L 497.649 -9.19239L 493.052 -4.59619L 497.649 0ZM 597.178 99.5297L 592.582 104.126L 597.178 108.722L 601.774 104.126L 597.178 99.5297ZM 696.708 0L 701.304 -4.59619L 696.708 -9.19239L 692.112 -4.59619L 696.708 0ZM 796.238 99.5297L 791.642 104.126L 796.238 108.722L 800.834 104.126L 796.238 99.5297ZM 895.767 0L 900.364 -4.59619L 895.767 -9.19239L 891.171 -4.59619L 895.767 0ZM 4.59619 104.126L 104.126 4.5962L 94.9336 -4.5962L -4.59619 94.9335L 4.59619 104.126ZM 94.9336 4.59619L 194.463 104.126L 203.656 94.9335L 104.126 -4.59619L 94.9336 4.59619ZM 203.656 104.126L 303.185 4.59619L 293.993 -4.59619L 194.463 94.9335L 203.656 104.126ZM 293.993 4.59619L 393.523 104.126L 402.715 94.9335L 303.185 -4.59619L 293.993 4.59619ZM 402.715 104.126L 502.245 4.59619L 493.052 -4.59619L 393.523 94.9335L 402.715 104.126ZM 493.052 4.59619L 592.582 104.126L 601.774 94.9335L 502.245 -4.59619L 493.052 4.59619ZM 601.774 104.126L 701.304 4.59619L 692.112 -4.59619L 592.582 94.9335L 601.774 104.126ZM 692.112 4.59619L 791.642 104.126L 800.834 94.9335L 701.304 -4.59619L 692.112 4.59619ZM 800.834 104.126L 900.364 4.59619L 891.171 -4.59619L 791.642 94.9335L 800.834 104.126ZM 891.171 4.59619L 990.701 104.126L 999.893 94.9335L 900.364 -4.59619L 891.171 4.59619Z"/>
</defs>
</svg>
